<svg xmlns="http://www.w3.org/2000/svg" fill="#FFFFFF" height="24" viewBox="0 0 24 24" width="24" focusable="false" aria-hidden="true" style="pointer-events: none; display: inherit; width: 100%; height: 100%;"><path clip-rule="evenodd" d="M11.271 2.689a1.5 1.5 0 011.457 0l9 5A1.5 1.5 0 0122.5 9v7a.75.75 0 01-1.5 0v-5.284l-1.5.833V17a.75.75 0 01-.741.75c-1.9.023-3.076.4-3.941.896-.71.407-1.229.895-1.817 1.448-.159.149-.322.302-.496.46a.75.75 0 01-1.046-.034l-.076-.08c-.702-.73-1.303-1.355-2.164-1.832-.875-.485-2.074-.84-3.976-.858A.75.75 0 014.5 17v-5.45l-2.228-1.24a1.5 1.5 0 010-2.622l9-5ZM6 12.383v3.891c1.703.096 2.946.468 3.946 1.022.858.475 1.508 1.07 2.08 1.652.575-.54 1.221-1.13 2.046-1.603.988-.566 2.215-.963 3.928-1.068v-3.894l-5.272 2.928a1.5 1.5 0 01-1.457 0L6 12.383ZM12 4l9 5-9 5-9-5 9-5Z" fill-rule="evenodd"></path></svg>