<svg xmlns="http://www.w3.org/2000/svg" fill="#FFFFFF" height="24" viewBox="0 0 24 24" width="24" focusable="false" aria-hidden="true" style="pointer-events: none; display: inherit; width: 100%; height: 100%;"><path clip-rule="evenodd" d="M11.58 2.03c.545-.078 1.1-.003 1.606.214.506.218.942.57 1.26 1.02.319.448.508.976.547 1.525.038.55-.075 1.099-.328 1.588-.252.489-.634.899-1.104 1.185-.254.154-.527.27-.81.343v.705l7.18 5.026c.267.187.383.527.284.84-.098.312-.388.524-.715.524H18v3c0 .552-.448 1-1 1h-2v3h-1v-1h-1v1h-1v-1h-1v1h-1v-1H9v1H8v-1H7v1H6v-7H4.5c-.327 0-.617-.212-.715-.524-.099-.313.017-.653.285-.84l7.18-5.026V7.25c0-.414.336-.75.75-.75.275 0 .545-.076.78-.219.235-.143.427-.348.553-.593.126-.244.183-.519.163-.793-.019-.275-.114-.539-.273-.763-.16-.225-.377-.4-.63-.51-.253-.109-.53-.146-.803-.107-.272.038-.53.151-.742.326-.213.174-.373.404-.464.664-.137.391-.564.597-.955.46-.391-.136-.598-.564-.461-.955.182-.52.503-.98.928-1.328.425-.35.939-.575 1.484-.652ZM15 15h1.5v2.5H15V15Zm2.12-1.5H6.88L12 9.915l5.12 3.585ZM7.5 15h6v4.5h-6V15Z" fill-rule="evenodd"></path></svg>