<svg xmlns="http://www.w3.org/2000/svg" fill="white" height="24" viewBox="0 0 24 24" width="24" focusable="false" aria-hidden="true" style="pointer-events: none; display: inherit; width: 100%; height: 100%;"><path clip-rule="evenodd" d="M4 5c-.552 0-1 .448-1 1s.448 1 1 1h16c.552 0 1-.448 1-1s-.448-1-1-1H4Zm-1 5c0-.552.448-1 1-1h16c.552 0 1 .448 1 1s-.448 1-1 1H4c-.552 0-1-.448-1-1Zm11 3.862c0-.384.415-.625.748-.434L21 17l-6.252 3.573c-.333.19-.748-.05-.748-.435v-6.276ZM4 13c-.552 0-1 .448-1 1s.448 1 1 1h6c.552 0 1-.448 1-1s-.448-1-1-1H4Zm-1 5c0-.552.448-1 1-1h6c.552 0 1 .448 1 1s-.448 1-1 1H4c-.552 0-1-.448-1-1Z" fill-rule="evenodd"></path></svg>