<svg xmlns="http://www.w3.org/2000/svg" fill="#FFFFFF" height="24" viewBox="0 0 24 24" width="24" focusable="false" aria-hidden="true" style="pointer-events: none; display: inherit; width: 100%; height: 100%;"><path clip-rule="evenodd" d="M7.278 4.933C8.675 3.999 10.318 3.5 12 3.5c1.681 0 3.325.499 4.722 1.433 1.398.934 2.488 2.261 3.13 3.814.644 1.553.813 3.262.485 4.911-.328 1.65-1.138 3.164-2.327 4.352-.293.293-.293.768 0 1.061.293.293.768.293 1.061 0 1.399-1.399 2.351-3.18 2.737-5.12.386-1.94.188-3.95-.57-5.778-.756-1.827-2.038-3.389-3.682-4.488C15.91 2.586 13.978 2 12 2c-1.978 0-3.911.586-5.556 1.685-1.644 1.1-2.926 2.66-3.683 4.488-.757 1.827-.955 3.838-.569 5.778.386 1.94 1.338 3.721 2.737 5.12.293.293.768.293 1.06 0 .293-.293.293-.768 0-1.06-1.188-1.19-1.998-2.704-2.326-4.353-.328-1.649-.16-3.358.484-4.91.643-1.554 1.733-2.881 3.13-3.815ZM12 7.5c-.89 0-1.76.264-2.5.758-.74.495-1.317 1.198-1.657 2.02-.341.822-.43 1.727-.257 2.6.174.873.603 1.675 1.232 2.304.293.293.293.768 0 1.06-.293.293-.768.293-1.06 0-.84-.839-1.411-1.908-1.643-3.072-.231-1.163-.112-2.37.342-3.466S7.68 7.67 8.667 7.01C9.653 6.351 10.813 6 12 6c1.187 0 2.347.352 3.333 1.011.987.66 1.756 1.597 2.21 2.693.454 1.096.573 2.303.342 3.466-.232 1.164-.803 2.233-1.642 3.073-.293.293-.768.293-1.061 0-.293-.293-.293-.768 0-1.061.63-.63 1.058-1.431 1.231-2.304.174-.873.085-1.778-.256-2.6-.34-.822-.917-1.525-1.657-2.02-.74-.494-1.61-.758-2.5-.758Zm.875 6.299C13.541 13.474 14 12.79 14 12c0-1.105-.895-2-2-2s-2 .895-2 2c0 .79.459 1.474 1.125 1.799V21c0 .483.392.875.875.875s.875-.392.875-.875v-7.201Z" fill-rule="evenodd"></path></svg>