<svg xmlns="http://www.w3.org/2000/svg" fill="#FFFFFF" height="24" viewBox="0 0 24 24" width="24" focusable="false" aria-hidden="true" style="pointer-events: none; display: inherit; width: 100%; height: 100%;"><path clip-rule="evenodd" d="M12 2.5c-.328 0-.653.065-.957.19-.303.126-.579.31-.81.542-.233.232-.417.508-.543.811-.125.304-.19.629-.19.957v1h5V5c0-.328-.065-.653-.19-.957-.126-.303-.31-.579-.542-.81-.232-.233-.508-.417-.811-.543-.304-.125-.629-.19-.957-.19ZM16 5v1h3.5c.828 0 1.5.672 1.5 1.5V18c0 2.21-1.79 4-4 4H7c-2.21 0-4-1.79-4-4V7.5C3 6.672 3.672 6 4.5 6H8V5c0-.525.103-1.045.304-1.53.201-.486.496-.927.868-1.298.371-.372.812-.667 1.297-.868C10.955 1.104 11.475 1 12 1c.525 0 1.045.103 1.53.304.486.202.927.496 1.298.868.372.371.667.812.867 1.297C15.896 3.955 16 4.475 16 5Zm-4 7.5c-.328 0-.653-.065-.957-.19-.303-.126-.579-.31-.81-.542-.233-.232-.417-.508-.543-.811-.125-.304-.19-.629-.19-.957 0-.414-.336-.75-.75-.75S8 9.586 8 10c0 .525.103 1.045.304 1.53.201.486.496.927.868 1.298.371.372.812.667 1.297.867.486.201 1.006.305 1.531.305.525 0 1.045-.104 1.53-.305.486-.2.927-.495 1.298-.867.372-.371.667-.812.867-1.297.201-.486.305-1.006.305-1.531 0-.414-.336-.75-.75-.75s-.75.336-.75.75c0 .328-.065.653-.19.957-.126.303-.31.579-.542.81-.232.233-.508.417-.811.543-.304.125-.629.19-.957.19Zm-7.5-5h15V18c0 1.38-1.12 2.5-2.5 2.5H7c-1.38 0-2.5-1.12-2.5-2.5V7.5Z" fill-rule="evenodd"></path></svg>